inDegrees=no
num_controls=7
num_derivatives=13
num_iterations=75
num_multipliers=7
num_parameters=0
num_slacks=7
num_states=26
objective=0.333906
objective_accelerations=0.036906
objective_balance=0.001337
objective_effort=0.027147
objective_height=0.267044
objective_ligament=0.001471
solver_duration=787.412863
status=Solve_Succeeded
success=true
DataType=double
version=3
OpenSimVersion=4.5
endheader
time	/jointset/ground_pelvis/pelvis_tilt/value	/jointset/ground_pelvis/pelvis_tx/value	/jointset/ground_pelvis/pelvis_ty/value	/jointset/hip_r/hip_flexion_r/value	/jointset/hip_r/hip_adduction_r/value	/jointset/hip_r/hip_rotation_r/value	/jointset/back/lumbar_extension/value	/jointset/patellofemoral_r/patellar_flexion_r/value	/jointset/knee_r/knee_flexion_r/value	/jointset/knee_r/knee_adduction_r/value	/jointset/knee_r/knee_rotation_r/value	/jointset/ankle_r/ankle_angle_r/value	/jointset/subtalar_r/subtalar_angle_r/value	/jointset/ground_pelvis/pelvis_tilt/speed	/jointset/ground_pelvis/pelvis_tx/speed	/jointset/ground_pelvis/pelvis_ty/speed	/jointset/hip_r/hip_flexion_r/speed	/jointset/hip_r/hip_adduction_r/speed	/jointset/hip_r/hip_rotation_r/speed	/jointset/back/lumbar_extension/speed	/jointset/patellofemoral_r/patellar_flexion_r/speed	/jointset/knee_r/knee_flexion_r/speed	/jointset/knee_r/knee_adduction_r/speed	/jointset/knee_r/knee_rotation_r/speed	/jointset/ankle_r/ankle_angle_r/speed	/jointset/subtalar_r/subtalar_angle_r/speed	/forceset/tau_hip_flexion_r	/forceset/tau_hip_adduction_r	/forceset/tau_hip_rotation_r	/forceset/tau_knee_flexion_r	/forceset/tau_ankle_angle_r	/forceset/tau_subtalar_angle_r	/forceset/tau_lumbar_extension	lambda_cid13_p0	lambda_cid14_p0	lambda_cid14_p1	lambda_cid14_p2	lambda_cid14_p3	lambda_cid14_p4	lambda_cid14_p5	/jointset/ground_pelvis/pelvis_tilt/accel	/jointset/ground_pelvis/pelvis_tx/accel	/jointset/ground_pelvis/pelvis_ty/accel	/jointset/hip_r/hip_flexion_r/accel	/jointset/hip_r/hip_adduction_r/accel	/jointset/hip_r/hip_rotation_r/accel	/jointset/back/lumbar_extension/accel	/jointset/patellofemoral_r/patellar_flexion_r/accel	/jointset/knee_r/knee_flexion_r/accel	/jointset/knee_r/knee_adduction_r/accel	/jointset/knee_r/knee_rotation_r/accel	/jointset/ankle_r/ankle_angle_r/accel	/jointset/subtalar_r/subtalar_angle_r/accel	gamma_cid13_p0	gamma_cid14_p0	gamma_cid14_p1	gamma_cid14_p2	gamma_cid14_p3	gamma_cid14_p4	gamma_cid14_p5
1.5	-0.1092598799629817	0.03826739396810105	0.8162522079682848	0.829307772382597	-0.2266889213076616	-0.1217302316703588	-0.6254426259824218	0.9366723415976117	0.9366723415976113	-0.03534777616957713	0.1745281222073093	0.3065900185728901	0.1375382262428375	0.520646307715339	0.2235167229303571	0.5103869219890252	-2.069995297119262	-0.0003535087724220803	-0.1749386684824521	0.8016849935997822	-1.95602485115631	-1.956024851156312	0.493030330768948	-1.667227449552779e-05	-0.5252585724704594	-0.2095176724198642	-0.172653968166853	0.0204212779890313	0.01762909484197386	-0.283579742376084	-0.008107444850212121	-0.007682744074317614	0.2194442285397783	-9.319643013158032	-44.9223516767626	-10.59186461664735	1.413423392270859	-1.111903130106823	-628.2721336416373	51.72937138605243	0.155638353767307	0.5516538945416699	-0.5325760222420191	-0.995807625360119	-0.2702955221268951	-0.6564833071693449	1.79916210725922	-1.328060587733284	-1.328060587733282	0.4765958313564816	-0.02777049583565119	-0.6659412925181782	-0.4573932929082107	1.717213300673434e-07	1.421230702633165e-07	-1.069316866005301e-06	1.490395539989085e-06	1.859872275263584e-08	3.37468119047892e-07	-8.270478734301087e-07
1.51	-0.1040460582541559	0.04052987256819119	0.821328429049897	0.8085601227315256	-0.2267068666304548	-0.1235122572351492	-0.6173375156304538	0.9170481171715734	0.917048117171571	-0.03039212774343049	0.1745277315740853	0.3013045963204325	0.1354191639385895	0.5220331097395765	0.2289472693598521	0.5047487417133469	-2.079251124181925	-0.003237319613412572	-0.1815022530743137	0.8192117699493043	-1.968556706414621	-1.968556706414625	0.498034462124598	-5.656685910423426e-05	-0.5317474238690697	-0.2142457391828962	-0.1648689745120608	0.01841276835582309	0.01779886751996147	-0.2802331935522457	-0.005880948713803675	-0.008395689785381249	0.2124019962738761	-10.34839723012681	-43.91911617928244	-10.5627510918963	1.222497876609004	-1.220243052254362	-623.2833462218729	51.76224614742256	0.1174730236928443	0.533998679932248	-0.5956554177492779	-0.8479278451483309	-0.2975435423164929	-0.6614023848857632	1.710639372147774	-1.176280753397091	-1.176280753397287	0.5024663073384305	0.008882504075360466	-0.6285523474169342	-0.47314047470783	1.636685644200209e-07	1.367186448007593e-07	-1.01076766341135e-06	1.451468305436843e-06	1.56361028987015e-08	3.342072677610855e-07	-8.160077403459018e-07
1.52	-0.09882091414569813	0.04284570536513201	0.8263450250512487	0.7877284232901429	-0.2267536739971059	-0.1253609399157958	-0.6090608967203203	0.8973064676412463	0.897306467641246	-0.02538840909980024	0.1745271382837853	0.2959566464972123	0.1332542955453696	0.5229107876414462	0.2341875623004944	0.4984619059369352	-2.086805255181748	-0.006125917543656203	-0.1882700916538234	0.8359867052327888	-1.979509872013615	-1.979509872013619	0.5026443742670186	-5.720368975943357e-05	-0.5377640866230592	-0.2186788902142152	-0.1570839808572655	0.01640425872261015	0.01796864019798957	-0.2768866447284026	-0.003654452577396261	-0.00910863549645325	0.2053597640079774	-11.37950960358747	-42.91611667990231	-10.53215319147897	1.029592845166522	-1.339950614548463	-618.2935084727271	51.85635934465598	0.05381352929372817	0.5136031967710969	-0.662307122388666	-0.6554684127920724	-0.2712529399775392	-0.6973341046989797	1.648793894051712	-1.012322655869878	-1.012322655869878	0.3977519887106239	-0.01991894504493471	-0.5715035635940433	-0.3984101465656035	1.619227604487647e-07	1.28138451196892e-07	-1.083089915331659e-06	1.340596037261198e-06	2.94354669153719e-08	3.272711638783776e-07	-8.685067127068074e-07
1.53	-0.09358950072682562	0.04521295392048671	0.8312955670744777	0.7668296890679782	-0.2268293346130293	-0.1272786367167388	-0.6006203224243799	0.8774633101248347	0.8774633101248338	-0.02034085511430192	0.1745269201802303	0.2905510242967193	0.1310467033790949	0.523290588741086	0.2392264001015887	0.4915438572610545	-2.092655203099968	-0.009009422058543914	-0.195258463623852	0.851998130049322	-1.988835161683123	-1.988835161683126	0.5068389460427696	1.476118805095801e-07	-0.5432698206538042	-0.2227925521369021	-0.1494066952889832	0.0142275132419746	0.01816107451142351	-0.2736471584415615	-0.001448648995899841	-0.00988025124981441	0.1984115126277782	-12.41015644965039	-41.94289189197448	-10.5368597443329	0.8475831274144106	-1.442059451632676	-613.575316294765	51.9399026131725	0.01787577633122297	0.4936773646957889	-0.7218878320971999	-0.5067874236915287	-0.2973272796871027	-0.6977200978452885	1.557813189590211	-0.8496955908720332	-0.8496955908718311	0.4260075970462778	0.01671244704852522	-0.5264763715757085	-0.4108924855540343	1.668781032583288e-07	1.161840039428828e-07	-1.294463087673367e-06	1.153282170860686e-06	6.104443879455965e-08	3.164301041125242e-07	-9.885159846031443e-07
